<?xml version="1.0" encoding="UTF-8" standalone="no"?>
<svg
   xmlns:dc="http://purl.org/dc/elements/1.1/"
   xmlns:cc="http://creativecommons.org/ns#"
   xmlns:rdf="http://www.w3.org/1999/02/22-rdf-syntax-ns#"
   xmlns:svg="http://www.w3.org/2000/svg"
   xmlns="http://www.w3.org/2000/svg"
   xmlns:sodipodi="http://sodipodi.sourceforge.net/DTD/sodipodi-0.dtd"
   xmlns:inkscape="http://www.inkscape.org/namespaces/inkscape"
   id="Art"
   viewBox="0 0 32.786777 26.386204"
   version="1.1"
   sodipodi:docname="Google Cloud icon.svg"
   inkscape:version="0.92.3 (2405546, 2018-03-11)"
   width="32.786777"
   height="26.386204">
  <metadata
     id="metadata3773">
    <rdf:RDF>
      <cc:Work
         rdf:about="">
        <dc:format>image/svg+xml</dc:format>
        <dc:type
           rdf:resource="http://purl.org/dc/dcmitype/StillImage" />
        <dc:title>Cloud_Logo_Nav</dc:title>
      </cc:Work>
    </rdf:RDF>
  </metadata>
  <sodipodi:namedview
     pagecolor="#ffffff"
     bordercolor="#666666"
     borderopacity="1"
     objecttolerance="10"
     gridtolerance="10"
     guidetolerance="10"
     inkscape:pageopacity="0"
     inkscape:pageshadow="2"
     inkscape:window-width="1366"
     inkscape:window-height="715"
     id="namedview3771"
     showgrid="false"
     inkscape:zoom="5.038674"
     inkscape:cx="119.12519"
     inkscape:cy="4.5916841"
     inkscape:window-x="-8"
     inkscape:window-y="599"
     inkscape:window-maximized="1"
     inkscape:current-layer="Art"
     fit-margin-top="0"
     fit-margin-left="0"
     fit-margin-right="0"
     fit-margin-bottom="0" />
  <defs
     id="defs3746">
    <style
       id="style3744">.cls-1{fill:#ea4335;}.cls-2{fill:#4285f4;}.cls-3{fill:#34a853;}.cls-4{fill:#fbbc05;}.cls-5{fill:#5f6368;}</style>
  </defs>
  <title
     id="title3748">Cloud_Logo_Nav</title>
  <path
     class="cls-1"
     d="m 20.804686,7.2659235 h 1 l 2.85,-2.85 0.14,-1.21 a 12.81,12.81 0 0 0 -20.8400004,6.25 1.55,1.55 0 0 1 1,-0.06 l 5.7000004,-0.94 c 0,0 0.29,-0.48 0.44,-0.45 a 7.11,7.11 0 0 1 9.73,-0.74 z"
     id="path3750"
     inkscape:connector-curvature="0"
     style="fill:#ea4335" />
  <path
     class="cls-2"
     d="m 28.714686,9.4559235 a 12.84,12.84 0 0 0 -3.87,-6.24 l -4,4 a 7.11,7.11 0 0 1 2.61,5.6399995 v 0.71 a 3.56,3.56 0 1 1 0,7.12 h -7.12 l -0.71,0.72 v 4.27 l 0.71,0.71 h 7.12 a 9.26,9.26 0 0 0 5.26,-16.9299995 z"
     id="path3752"
     inkscape:connector-curvature="0"
     style="fill:#4285f4" />
  <path
     class="cls-3"
     d="m 9.2046856,26.345923 h 7.1200004 v -5.7 H 9.2046856 a 3.54,3.54 0 0 1 -1.47,-0.32 l -1,0.31 -2.87,2.85 -0.25,1 a 9.21,9.21 0 0 0 5.59,1.86 z"
     id="path3754"
     inkscape:connector-curvature="0"
     style="fill:#34a853" />
  <path
     class="cls-4"
     d="m 9.2046856,7.8559235 a 9.26,9.26 0 0 0 -5.59,16.5999995 l 4.13,-4.13 a 3.56,3.56 0 1 1 4.7100004,-4.71 l 4.13,-4.13 A 9.25,9.25 0 0 0 9.2046856,7.8559235 Z"
     id="path3756"
     inkscape:connector-curvature="0"
     style="fill:#fbbc05" />
</svg>
